<?xml version="1.0" standalone="no"?>
<!DOCTYPE svg PUBLIC "-//W3C//DTD SVG 20010904//EN"
 "http://www.w3.org/TR/2001/REC-SVG-20010904/DTD/svg10.dtd">
<svg version="1.0" xmlns="http://www.w3.org/2000/svg"
 width="512.000000pt" height="512.000000pt" viewBox="0 0 512.000000 512.000000"
 preserveAspectRatio="xMidYMid meet">

<g transform="translate(0.000000,512.000000) scale(0.100000,-0.100000)"
fill="#000000" stroke="none">
<path d="M2440 5114 c-653 -59 -1230 -324 -1675 -769 -319 -319 -551 -718
-670 -1150 -111 -407 -122 -838 -30 -1250 188 -841 791 -1542 1600 -1858 194
-76 235 -85 279 -64 19 9 42 27 50 39 8 14 28 132 50 298 19 151 99 762 176
1358 134 1030 140 1085 125 1116 -9 18 -29 46 -45 61 -34 32 -38 45 -14 45 8
0 29 14 46 30 l30 30 -7 498 c-5 338 -11 505 -19 522 -6 13 -26 34 -43 45 -18
11 -32 22 -32 25 0 10 359 262 368 258 15 -5 360 -252 360 -258 1 -3 -12 -11
-28 -18 -58 -26 -59 -31 -66 -572 l-7 -495 22 -28 c13 -16 34 -33 47 -38 l24
-9 -39 -47 c-22 -27 -43 -58 -46 -69 -8 -26 341 -2729 355 -2756 13 -24 68
-58 94 -58 30 0 189 53 319 106 623 254 1144 770 1410 1397 l46 108 0 899 0
899 -46 108 c-130 307 -322 591 -559 828 -402 402 -915 659 -1489 746 -127 19
-476 33 -586 23z m431 -234 c998 -98 1833 -794 2094 -1744 65 -240 80 -352 80
-626 0 -268 -13 -373 -74 -606 -169 -643 -622 -1202 -1221 -1508 -105 -54
-274 -126 -295 -126 -7 0 -30 145 -63 402 -29 222 -52 411 -52 420 0 10 30 33
83 61 133 73 255 165 367 277 206 206 341 442 410 714 93 369 51 749 -122
1088 -81 159 -163 273 -288 398 -123 123 -241 209 -386 282 l-104 53 0 80 c-1
44 -6 90 -13 102 -11 19 -510 388 -602 444 -34 22 -76 24 -108 8 -52 -28 -603
-430 -615 -449 -9 -14 -14 -58 -14 -123 l-1 -102 -76 -43 c-295 -165 -549
-458 -676 -780 -74 -189 -105 -356 -105 -572 0 -162 11 -257 47 -395 107 -410
349 -721 766 -980 14 -9 10 -51 -40 -440 -31 -237 -58 -432 -60 -434 -6 -8
-147 51 -263 110 -600 303 -1048 849 -1224 1491 -66 242 -81 353 -81 628 0
274 15 387 80 623 260 946 1091 1646 2075 1746 122 12 361 13 481 1z m480
-1197 c116 -69 195 -132 295 -234 192 -200 315 -444 360 -717 19 -117 14 -359
-10 -467 -68 -303 -234 -580 -458 -761 -78 -63 -226 -160 -232 -153 -5 6 -176
1349 -176 1377 0 15 37 66 104 142 115 132 127 160 99 219 -24 49 -72 71 -153
71 l-65 0 3 302 c2 167 5 309 7 315 5 16 122 -33 226 -94z m-1228 0 c4 -38 7
-170 7 -295 l0 -228 -70 0 c-87 0 -126 -18 -147 -67 -25 -61 -12 -90 102 -221
69 -79 105 -129 105 -144 0 -40 -168 -1320 -174 -1325 -12 -13 -128 79 -236
187 -204 203 -315 410 -377 700 -26 126 -24 361 6 500 84 395 331 726 682 914
46 25 87 46 90 46 3 0 9 -30 12 -67z"/>
</g>
</svg>
